<svg xmlns="http://www.w3.org/2000/svg" xml:space="preserve" width="2048" height="2048"
    style="shape-rendering:geometricPrecision;text-rendering:geometricPrecision;image-rendering:optimizeQuality;fill-rule:evenodd;clip-rule:evenodd"><defs><clipPath id="id0"><path d="M1024-.001c565.541 0 1024 458.46 1024 1024s-458.461 1024-1024 1024c-565.541 0-1024-458.461-1024-1024 0-565.541 458.461-1024 1024-1024z"/></clipPath><style>.fil1{fill:#0288d1}.fil12{fill:#7eb45e}.fil10{fill:#9ccc65}.fil8{fill:#d47c0f}.fil7{fill:#d49144}.fil16{fill:#ef6713}.fil14{fill:#f57f17}.fil5{fill:#ff9100}.fil4{fill:#ffab40}</style></defs><g id="Layer_x0020_1"><path d="M1024-.001c565.541 0 1024 458.46 1024 1024s-458.461 1024-1024 1024c-565.541 0-1024-458.461-1024-1024 0-565.541 458.461-1024 1024-1024z" style="fill:#03a9f4"/><g style="clip-path:url(#id0)"><g id="_464381376"><path id="_4668002081" class="fil1" d="M1458.23 515.423 2594.11 1651.31l20.16 157.01L1478.39 672.441z"/><path id="_466800232" class="fil1" d="M1478.39 672.441 2614.27 1808.32l4.91 38.31L1483.3 710.749z"/><path id="_466800736" class="fil1" d="M1109.16 517.985 2245.04 1653.87l1.16 1.54 1 1.65.85 1.76.68 1.84.5 1.91.3 1.99.1 2.04v158.31L1113.75 689.026V530.719l-.1-2.042-.31-1.985-.49-1.918-.68-1.841-.85-1.751-1-1.652z"/><path id="_466800808" class="fil1" d="M761.462 516.559 1897.34 1652.44l1.3 1.43 1.16 1.54 1 1.65.85 1.76.68 1.84.49 1.91.31 1.99.1 2.04L767.352 530.719l-.104-2.042-.304-1.985-.498-1.918-.677-1.841-.846-1.751-1.008-1.652-1.156-1.545z"/><path id="_466800880" class="fil1" d="M767.352 530.719 1903.23 1666.6v158.31L767.351 689.026z"/><path id="_466800952" class="fil1" d="M767.351 689.026 1903.23 1824.91v38.62L767.351 727.648z"/><path id="_466801024" class="fil1" d="M767.351 727.648 1903.23 1863.53v496.35L767.351 1224z"/><path id="_466801096" class="fil1" d="M1113.75 727.648 2249.63 1863.53v496.35L1113.75 1224z"/><path id="_466801168" class="fil1" d="m1113.75 1224 1135.88 1135.88v38.63L1113.75 1262.62z"/><path id="_466801240" class="fil1" d="m1113.75 1339.91 1135.88 1135.88v177.37l-.1 2.05-.3 1.98-.5 1.92-.68 1.84-.85 1.75-1 1.65-1.16 1.55-1.3 1.42-1.42 1.3-1.55 1.16-1.65 1.01-1.75.84-1.84.68-1.92.5-1.98.3-2.05.1L1093.7 1537.33l2.04-.1 1.99-.31 1.92-.49 1.84-.68 1.75-.85 1.65-1 1.55-1.16 1.42-1.3 1.3-1.42 1.16-1.55 1-1.65.85-1.75.68-1.84.49-1.92.31-1.99.1-2.04z"/><path id="_466801312" class="fil1" d="M1453.4 504.761 2589.28 1640.64l1.21 1.52 1.06 1.63.91 1.73.73 1.84.56 1.93.36 2.02L1458.23 515.423l-.36-2.013-.56-1.93-.73-1.839-.91-1.738-1.06-1.63z"/><path id="_466801384" class="fil1" d="M1113.75 689.026 2249.63 1824.91v38.62L1113.75 727.648z"/><path id="_466801456" class="fil1" d="M1483.3 710.749 2619.18 1846.63l63.2 492.31L1546.5 1203.06z"/><path id="_466801528" class="fil1" d="m1546.5 1203.06 1135.88 1135.88 4.92 38.31-1135.89-1135.88z"/><path id="_466801600" class="fil1" d="m1113.75 1262.62 1135.88 1135.89v38.66L1113.75 1301.29z"/><path id="_466801672" class="fil1" d="m1113.75 1301.29 1135.88 1135.88v38.62L1113.75 1339.91z"/><path id="_466801744" class="fil1" d="M1436.24 1533.12 2572.12 2669l-130.84 16.79L1305.4 1549.91z"/><path id="_466801816" class="fil1" d="m1305.4 1549.91 1135.88 1135.88-2.04.16-2.01-.05-1.97-.25-1.91-.43-1.84-.62-1.77-.79-1.68-.95-1.58-1.1-1.47-1.25-1135.88-1135.89 1.47 1.25 1.58 1.11 1.68.95 1.77.79 1.84.61 1.91.44 1.97.25 2.01.05z"/><path id="_466801888" class="fil1" d="M767.351 1224 1903.23 2359.88v38.63L767.351 1262.62z"/><path id="_466801960" class="fil1" d="M767.351 1339.91 1903.23 2475.79v177.37l-.1 2.05-.31 1.98-.49 1.92-.68 1.84-.85 1.75-1 1.65-1.16 1.55-1.3 1.42-1.42 1.3-1.55 1.16-1.65 1.01-1.75.84-1.84.68-1.92.5-1.99.3-2.04.1L747.299 1537.33l2.044-.1 1.985-.31 1.918-.49 1.84-.68 1.752-.85 1.654-1 1.544-1.16 1.426-1.3 1.297-1.42 1.156-1.55 1.008-1.65.846-1.75.677-1.84.498-1.92.304-1.99.104-2.04z"/><path id="_466802032" class="fil1" d="M1551.41 1241.37 2687.3 2377.25l4.92 38.35-1135.88-1135.88z"/><path id="_466802104" class="fil1" d="M1556.34 1279.72 2692.22 2415.6l4.92 38.31-1135.89-1135.88z"/><path id="_466802176" class="fil1" d="m1561.25 1318.03 1135.89 1135.88 22.58 175.93.16 2.04-.05 2.01-.25 1.96-.44 1.91-.62 1.85-.78 1.77-.96 1.68-1.1 1.57-1.25 1.47-1.38 1.35-1.52 1.2-1.63 1.07-1.73.9-1.84.74-1.93.56-2.02.36L1566.5 1516.4l2.01-.37 1.94-.55 1.83-.74 1.74-.9 1.63-1.07 1.51-1.21 1.39-1.34 1.25-1.47 1.1-1.58.95-1.68.79-1.76.62-1.85.44-1.91.25-1.97.05-2.01-.16-2.03z"/><path id="_466802248" class="fil1" d="m1566.5 1516.4 1135.88 1135.88-130.26 16.72-1135.88-1135.88z"/><path id="_466802320" class="fil1" d="M767.351 1262.62 1903.23 2398.51v38.66L767.351 1301.29z"/><path id="_466802392" class="fil1" d="M767.351 1301.29 1903.23 2437.17v38.62L767.351 1339.91z"/><path id="_466802464" class="fil1" d="m1093.7 1537.33 1135.88 1135.88h-131.62L962.079 1537.33z"/><path id="_466802536" class="fil1" d="M962.079 1537.33 2097.96 2673.21h-131.63l-2.04-.1-1.98-.31-1.92-.49-1.84-.68-1.75-.85-1.66-1-1.54-1.16L817.717 1532.74l1.545 1.16 1.653 1 1.752.85 1.84.68 1.918.49 1.985.31 2.044.1z"/><path id="_466802608" class="fil1" d="M747.299 1537.33 1883.18 2673.21h-131.62L615.677 1537.33z"/><path id="_466802680" class="fil1" d="M615.677 1537.33 1751.56 2673.21h-131.63l-2.04-.1-1.99-.3-1.91-.5-1.84-.68-1.76-.84-1.65-1.01-1.54-1.16L471.315 1532.74l1.544 1.16 1.654 1 1.752.85 1.84.68 1.918.49 1.985.31 2.042.1z"/><path id="_464378520" class="fil1" d="m1458.23 515.423 20.154 157.018 4.917 38.308 63.195 492.313 4.917 38.308 4.923 38.348 4.917 38.308 22.584 175.929c1.404 10.94-6.397 21.038-17.336 22.44l-130.262 16.722-130.844 16.795c-10.941 1.403-21.038-6.397-22.443-17.336l-22.582-175.928-4.917-38.308-4.923-38.348-4.917-38.308-63.195-492.313-4.917-38.308-20.155-157.017c-1.405-10.94 6.395-21.038 17.336-22.442l131.104-16.83 130.002-16.686c10.94-1.405 21.038 6.397 22.442 17.335zm-627.778-4.754H1093.7c11.03 0 20.052 9.023 20.052 20.05V1517.281c0 11.03-9.023 20.052-20.052 20.052l-131.622-.002H830.452c-11.03 0-20.053-9.022-20.053-20.051V530.72c0-11.029 9.023-20.051 20.053-20.051zm-346.403 0h263.249c11.03 0 20.053 9.023 20.053 20.05l-.001 158.307V1517.281c0 11.03-9.022 20.052-20.052 20.052l-131.622-.002-131.627.002c-11.028 0-20.052-9.023-20.052-20.052V530.72c0-11.028 9.024-20.05 20.052-20.05z"/></g></g><path d="M1024-.001c565.541 0 1024 458.46 1024 1024s-458.461 1024-1024 1024c-565.541 0-1024-458.461-1024-1024 0-565.541 458.461-1024 1024-1024z" style="fill:none"/><rect x="463.999" y="510.669" width="303.352" height="1026.66" rx="20.052" ry="20.052" style="fill:#3e2723"/><path class="fil4" d="M463.999 689.026h303.352v38.622H463.999zM463.999 1301.29h303.352v38.622H463.999zM463.999 1224h303.352v38.622H463.999z"/><circle class="fil5" cx="615.676" cy="927.745" r="74.86"/><path class="fil5" d="M534.549 1024h162.252v9.931H534.549z"/><path d="M484.05 510.669h131.627v1026.66H484.05c-11.028 0-20.052-9.022-20.052-20.05V530.718c0-11.028 9.024-20.05 20.052-20.05z" style="fill:#38262c"/><path class="fil7" d="M463.999 689.026h151.678v38.622H463.999zM463.999 1301.29h151.678v38.62H463.999zM463.999 1224h151.678v38.62H463.999z"/><path class="fil8" d="M615.676 852.884h.001v149.721h-.001c-41.344 0-74.86-33.516-74.86-74.86 0-41.345 33.516-74.861 74.86-74.861zM534.55 1024h81.127v9.93H534.55z"/><rect x="810.401" y="510.669" width="303.352" height="1026.66" rx="20.052" ry="20.052" style="fill:#33691e"/><path class="fil10" d="M810.401 689.026h303.352v38.622H810.401zM810.401 1301.29h303.352v38.622H810.401zM810.401 1224h303.352v38.622H810.401z"/><circle class="fil10" cx="962.078" cy="927.745" r="74.86"/><path class="fil10" d="M880.951 1024h162.252v9.931H880.951z"/><path d="M830.454 510.669H962.08v1026.66H830.454c-11.03 0-20.053-9.022-20.053-20.052V530.718c0-11.029 9.023-20.051 20.053-20.051z" style="fill:#296424"/><path class="fil12" d="M810.401 689.026h151.678v38.623H810.401zM810.401 1301.29h151.678v38.62H810.401zM810.401 1224h151.678v38.62H810.401zM962.077 852.885h.002v149.72h-.002c-41.343 0-74.86-33.516-74.86-74.86 0-41.345 33.517-74.86 74.86-74.86zM880.951 1024h81.128v9.93h-81.128z"/><rect transform="matrix(.66296 -.0851 .0851 .66296 1154.79 534.157)" width="453.847" height="1536" rx="20.052" ry="20.052" style="fill:#e65100"/><path class="fil14" transform="matrix(.66296 -.0851 .0851 .66296 1177.5 711.064)" d="M0 0h453.847v57.783H0z"/><path class="fil14" transform="matrix(.66296 -.0851 .0851 .66296 1255.45 1318.34)" d="M0 0h453.847v57.783H0z"/><path class="fil14" transform="matrix(.66296 -.0851 .0851 .66296 1245.61 1241.68)" d="M0 0h453.847v57.783H0z"/><circle class="fil14" transform="matrix(.66296 -.0851 .0851 .66296 1358.34 928.528)" r="111.999"/><path class="fil14" transform="matrix(.66296 -.0851 .0851 .66296 1290.13 1034.32)" d="M0 0h242.747v14.858H0z"/><path d="m1174.68 531.604 131.104-16.83 130.453 1018.34-130.844 16.796c-10.94 1.403-21.038-6.397-22.442-17.336l-125.607-978.53c-1.404-10.94 6.396-21.038 17.336-22.442z" style="fill:#e34200"/><path class="fil16" d="m1177.5 711.063 150.95-19.376 4.91 38.309-150.94 19.375zM1255.45 1318.34l150.8-19.36 4.9 38.31-150.78 19.36zM1245.62 1241.68l150.81-19.35 4.9 38.31-150.8 19.35zM1348.81 854.278l.467-.053 19.022 148.494-.426.06c-41.008 5.264-78.517-23.712-83.782-64.72-5.264-41.008 23.713-78.518 64.719-83.781zM1290.13 1034.32l80.88-10.38 1.27 9.85-80.89 10.38z"/></g></svg>