<svg xmlns="http://www.w3.org/2000/svg" viewBox="0 0 32 32"><g data-name="cancel android app aplication phone"><path d="M22.36 11.05 21 9.64a2 2 0 0 0-2.83 0L16 11.76l-2.12-2.12a2 2 0 0 0-2.83 0l-1.41 1.41a2 2 0 0 0 0 2.83L11.76 16l-2.12 2.12a2 2 0 0 0 0 2.83l1.41 1.41a2 2 0 0 0 2.83 0L16 20.24l2.12 2.12a2 2 0 0 0 2.83 0L22.36 21a2 2 0 0 0 0-2.83L20.24 16l2.12-2.12a2 2 0 0 0 0-2.83zm-4.24 4.24a1 1 0 0 0 0 1.42L21 19.54 19.54 21l-2.83-2.83a1 1 0 0 0-1.42 0L12.46 21l-1.41-1.41 2.83-2.83a1 1 0 0 0 0-1.42l-2.83-2.83 1.41-1.41 2.83 2.83a1 1 0 0 0 1.42 0l2.83-2.83L21 12.46z"/><path d="M16 1a15 15 0 1 0 15 15A15 15 0 0 0 16 1zm0 28a13 13 0 1 1 13-13 13 13 0 0 1-13 13z"/></g></svg>